<?xml version="1.0" standalone="no"?><!DOCTYPE svg PUBLIC "-//W3C//DTD SVG 1.1//EN" "http://www.w3.org/Graphics/SVG/1.1/DTD/svg11.dtd"><svg t="1720974662737" class="icon" viewBox="0 0 1024 1024" version="1.1" xmlns="http://www.w3.org/2000/svg" p-id="9427" xmlns:xlink="http://www.w3.org/1999/xlink" width="16" height="16"><path d="M456.704 620.544c-7.68 0-15.36-3.072-20.48-8.704l-24.576-24.576c-32.256-32.256-50.176-75.264-50.176-121.344s17.92-89.088 50.176-121.344l199.168-199.168c32.256-32.256 75.264-50.176 121.344-50.176s89.088 17.92 121.344 50.176l24.576 24.576c32.256 32.256 50.176 75.776 50.176 121.344 0 46.08-17.92 89.088-50.176 121.344l-76.8 76.8c-5.632 5.632-12.8 8.704-20.48 8.704s-15.36-3.072-20.48-8.704c-11.264-11.264-11.264-29.696 0-41.472l76.8-76.8c20.992-21.504 33.28-50.176 33.28-80.384 0-30.208-11.776-58.88-33.28-79.872l-24.576-24.576c-21.504-21.504-49.664-33.28-79.872-33.28s-58.88 11.776-79.872 33.28l-199.68 199.68C431.616 407.552 419.84 435.712 419.84 465.92s11.776 58.88 33.28 79.872l24.576 24.576c11.264 11.264 11.264 29.696 0 41.472-5.632 5.632-12.8 8.704-20.992 8.704z" fill="#2c2c2c" p-id="9428"></path><path d="M291.84 928.256c-46.08 0-89.088-17.92-121.344-50.176l-24.576-24.576c-32.256-32.256-50.176-75.776-50.176-121.344 0-46.08 17.92-89.088 50.176-121.344l87.04-87.04c5.632-5.632 12.8-8.704 20.48-8.704s15.36 3.072 20.48 8.704c5.632 5.632 8.704 12.8 8.704 20.48s-3.072 15.36-8.704 20.48l-87.04 87.04c-44.032 44.032-44.032 116.224 0 160.256l24.576 24.576c20.992 21.504 50.176 33.28 79.872 33.28 30.208 0 58.88-11.776 79.872-33.28l199.168-199.168c44.032-44.032 44.032-116.224 0-160.256l-24.576-24.576c-11.264-11.264-11.264-29.696 0-41.472 5.632-5.632 12.8-8.704 20.48-8.704s15.36 3.072 20.48 8.704l24.576 24.576c67.072 67.072 67.072 175.616 0 242.688l-199.168 199.168c-31.232 32.768-74.24 50.688-120.32 50.688zM927.232 800.256h-64v-64c0-17.92-14.336-31.744-31.744-31.744s-31.744 14.336-31.744 31.744v64h-64c-17.92 0-31.744 14.336-31.744 31.744s14.336 31.744 31.744 31.744h64v64c0 17.92 14.336 31.744 31.744 31.744s31.744-14.336 31.744-31.744v-64h64c17.92 0 31.744-14.336 31.744-31.744s-14.336-31.744-31.744-31.744z" fill="#2c2c2c" p-id="9429"></path></svg>