<?xml version="1.0" standalone="no"?><!DOCTYPE svg PUBLIC "-//W3C//DTD SVG 1.1//EN" "http://www.w3.org/Graphics/SVG/1.1/DTD/svg11.dtd"><svg t="1720780584650" class="icon" viewBox="0 0 1024 1024" version="1.1" xmlns="http://www.w3.org/2000/svg" p-id="35254" xmlns:xlink="http://www.w3.org/1999/xlink" width="64" height="64"><path d="M85.333 512C85.333 276.352 276.331 85.333 512 85.333c235.648 0 426.667 190.998 426.667 426.667 0 235.648-190.998 426.667-426.667 426.667-235.648 0-426.667-190.998-426.667-426.667zM128 512c0 212.117 171.904 384 384 384 212.117 0 384-171.904 384-384 0-212.117-171.904-384-384-384-212.117 0-384 171.904-384 384z m362.667 106.667V277.333c0-28.437 42.666-28.437 42.666 0v341.334c0 28.437-42.666 28.437-42.666 0zM512 768a42.667 42.667 0 1 1 0-85.333A42.667 42.667 0 0 1 512 768z" fill="#d81e06" p-id="35255"></path></svg>