<?xml version="1.0" standalone="no"?><!DOCTYPE svg PUBLIC "-//W3C//DTD SVG 1.1//EN" "http://www.w3.org/Graphics/SVG/1.1/DTD/svg11.dtd"><svg t="1720689895009" class="icon" viewBox="0 0 1024 1024" version="1.1" xmlns="http://www.w3.org/2000/svg" p-id="11583" xmlns:xlink="http://www.w3.org/1999/xlink" width="64" height="64"><path d="M128 768V256a125.696 125.696 0 0 1 128-128h196.267c21.333 0 29.866 4.267 42.666 29.867S554.667 256 554.667 256H768a125.696 125.696 0 0 1 128 128v42.667a42.667 42.667 0 0 1-42.667 42.666 41.6 41.6 0 0 1-42.666-42.666V384A42.667 42.667 0 0 0 768 341.333H524.8A43.52 43.52 0 0 1 490.667 320l-64-106.667h-166.4A42.667 42.667 0 0 0 217.6 256v512a45.867 45.867 0 0 0 42.667 42.667H768A42.667 42.667 0 0 0 810.667 768v-42.667a42.667 42.667 0 0 1 42.666-42.666A45.867 45.867 0 0 1 896 725.333V768a125.696 125.696 0 0 1-128 128H260.267A126.763 126.763 0 0 1 128 768z m452.267-42.667a60.63 60.63 0 0 1-25.6-8.533 38.912 38.912 0 0 1 0-51.2l51.2-51.2H332.8a34.859 34.859 0 0 1-34.133-38.4 36.693 36.693 0 0 1 34.133-34.133h277.333l-51.2-51.2a38.912 38.912 0 0 1 0-51.2 33.493 33.493 0 0 1 46.934 0l106.666 115.2a38.912 38.912 0 0 1 0 51.2l-4.266 4.266L601.6 721.067a86.784 86.784 0 0 1-21.333 4.266zM810.667 597.333a42.667 42.667 0 1 0 85.333 0 42.667 42.667 0 1 0-85.333 0z" p-id="11584"></path></svg>